<svg width="19" height="18" viewBox="0 0 19 18" fill="none" xmlns="http://www.w3.org/2000/svg">
<g id="&#240;&#159;&#166;&#134; icon &#34;Calendar&#34;">
<path id="Vector" d="M15.1529 0.00439453C16.8571 0.00439453 18.2515 1.33066 18.3603 3.00734L18.3672 3.21868V14.7901C18.3672 16.4943 17.0409 17.8887 15.3642 17.9976L15.1529 18.0044H3.58147C1.87728 18.0044 0.482852 16.6781 0.374025 15.0014L0.367188 14.7901V3.21868C0.367188 1.51449 1.69345 0.120059 3.37013 0.0112316L3.58147 0.00439453H15.1529ZM17.0815 5.14725H1.6529V14.7901C1.6529 15.7925 2.41775 16.6164 3.39574 16.7099L3.58147 16.7187H15.1529C16.1553 16.7187 16.9792 15.9538 17.0726 14.9758L17.0815 14.7901V5.14725ZM5.51004 11.5758C6.22012 11.5758 6.79576 12.1514 6.79576 12.8615C6.79576 13.5716 6.22012 14.1473 5.51004 14.1473C4.79997 14.1473 4.22433 13.5716 4.22433 12.8615C4.22433 12.1514 4.79997 11.5758 5.51004 11.5758ZM9.36719 11.5758C10.0773 11.5758 10.6529 12.1514 10.6529 12.8615C10.6529 13.5716 10.0773 14.1473 9.36719 14.1473C8.6571 14.1473 8.08147 13.5716 8.08147 12.8615C8.08147 12.1514 8.6571 11.5758 9.36719 11.5758ZM5.51004 7.71868C6.22012 7.71868 6.79576 8.29431 6.79576 9.00439C6.79576 9.71449 6.22012 10.2901 5.51004 10.2901C4.79997 10.2901 4.22433 9.71449 4.22433 9.00439C4.22433 8.29431 4.79997 7.71868 5.51004 7.71868ZM9.36719 7.71868C10.0773 7.71868 10.6529 8.29431 10.6529 9.00439C10.6529 9.71449 10.0773 10.2901 9.36719 10.2901C8.6571 10.2901 8.08147 9.71449 8.08147 9.00439C8.08147 8.29431 8.6571 7.71868 9.36719 7.71868ZM13.2243 7.71868C13.9344 7.71868 14.51 8.29431 14.51 9.00439C14.51 9.71449 13.9344 10.2901 13.2243 10.2901C12.5142 10.2901 11.9386 9.71449 11.9386 9.00439C11.9386 8.29431 12.5142 7.71868 13.2243 7.71868ZM15.1529 1.29011H3.58147C2.579 1.29011 1.75518 2.05496 1.66173 3.03295L1.6529 3.21868V3.86154H17.0815V3.21868C17.0815 2.21621 16.3166 1.39239 15.3386 1.29894L15.1529 1.29011Z" fill="url(#paint0_linear_948_4409)"/>
</g>
<defs>
<linearGradient id="paint0_linear_948_4409" x1="4.04423" y1="16.0742" x2="14.3245" y2="1.80316" gradientUnits="userSpaceOnUse">
<stop stop-color="#9083D5"/>
<stop offset="1" stop-color="#807593"/>
</linearGradient>
</defs>
</svg>
