<svg width="19" height="14" viewBox="0 0 19 14" fill="none" xmlns="http://www.w3.org/2000/svg">
<g id="&#240;&#159;&#166;&#134; icon &#34;Top Speed&#34;">
<path id="Vector" d="M7.61386 10.187L13.2421 2.56254C13.4284 2.31012 13.773 2.23509 14.0474 2.38719C14.2944 2.52409 14.4155 2.80672 14.3533 3.07462L14.3257 3.16315L10.8444 11.9778C10.4666 12.9344 9.38481 13.4036 8.42821 13.0258C8.35313 12.9961 8.28005 12.9616 8.20944 12.9225C7.30966 12.4237 6.98456 11.29 7.48332 10.3902L7.54529 10.2865L7.61386 10.187ZM15.3142 2.98445C15.9929 3.53435 16.6072 4.18702 17.1332 4.93824C17.6051 5.61206 18.0594 6.42795 18.3206 7.09565C18.4564 7.44264 18.2852 7.83399 17.9382 7.96976C17.5912 8.10554 17.1999 7.93432 17.0641 7.58733C16.9766 7.36367 16.8598 7.11397 16.7247 6.85707L14.8811 7.92148C14.5584 8.10778 14.1458 7.99722 13.9595 7.67454C13.7887 7.37875 13.8674 7.00739 14.1302 6.80405L14.2064 6.75294L16.0219 5.70329L15.8147 5.42109C15.5233 5.04098 15.2046 4.69298 14.8632 4.37791L15.2052 3.5105C15.2392 3.42421 15.2652 3.33651 15.2833 3.24832L15.3046 3.11577L15.3142 2.98445ZM12.9497 1.58004C12.8156 1.6579 12.692 1.75693 12.5839 1.87565L12.4812 2.00088L11.9946 2.66019C11.3633 2.44076 10.7078 2.29878 10.0435 2.23701L10.0433 4.64135C10.0433 5.01395 9.74124 5.316 9.36864 5.316C9.02709 5.316 8.74481 5.06219 8.70014 4.73289L8.69398 4.64135L8.69363 2.22223C7.25736 2.32435 5.8294 2.8048 4.56409 3.69079C3.83011 4.20473 3.19015 4.8802 2.65819 5.67401L4.53123 6.75534C4.85392 6.94164 4.96448 7.35425 4.77818 7.67694C4.6074 7.97273 4.24646 8.09028 3.93894 7.96432L3.85658 7.92388L1.99075 6.84714C1.87582 7.08661 1.7691 7.33315 1.67085 7.5859C1.53587 7.9332 1.1449 8.10531 0.797612 7.97032C0.450321 7.83533 0.278212 7.44437 0.413198 7.09708C1.13863 5.23067 2.28361 3.64039 3.79015 2.58549C6.57145 0.638009 10.0279 0.373965 12.9497 1.58004Z" fill="#4B4B4B"/>
</g>
</svg>
