<svg width="19" height="22" viewBox="0 0 19 22" fill="none" xmlns="http://www.w3.org/2000/svg">
<g id="&#240;&#159;&#166;&#134; icon &#34;Notebook&#34;">
<path id="Vector" d="M13.4803 0.71875C14.7584 0.71875 15.7946 1.75489 15.7946 3.03304V18.9759C15.7946 20.254 14.7584 21.2902 13.4803 21.2902H2.68147C1.40333 21.2902 0.367188 20.254 0.367188 18.9759V3.03304C0.367188 1.75489 1.40333 0.71875 2.68147 0.71875H13.4803ZM13.4803 2.26161H2.68147C2.25543 2.26161 1.91004 2.60699 1.91004 3.03304V18.9759C1.91004 19.4019 2.25543 19.7473 2.68147 19.7473H13.4803C13.9063 19.7473 14.2517 19.4019 14.2517 18.9759V3.03304C14.2517 2.60699 13.9063 2.26161 13.4803 2.26161ZM16.8243 14.0922H17.5958C17.9863 14.0922 18.3091 14.3824 18.3601 14.7589L18.3672 14.8636V16.4045C18.3672 16.795 18.077 17.1178 17.7004 17.1688L17.5958 17.1759H16.8243V14.0922ZM16.8243 9.97789H17.5958C17.9863 9.97789 18.3091 10.2681 18.3601 10.6446L18.3672 10.7493V12.2902C18.3672 12.6807 18.077 13.0035 17.7004 13.0546L17.5958 13.0616H16.8243V9.97789ZM16.8243 5.8636H17.5958C17.9863 5.8636 18.3091 6.15382 18.3601 6.53035L18.3672 6.63503V8.17589C18.3672 8.56644 18.077 8.8892 17.7004 8.94028L17.5958 8.94732H16.8243V5.8636ZM11.9374 3.80446C12.3635 3.80446 12.7088 4.14984 12.7088 4.57589V7.14578C12.7088 7.57183 12.3635 7.91721 11.9374 7.91721H4.22433C3.79828 7.91721 3.4529 7.57183 3.4529 7.14578V4.57589C3.4529 4.14984 3.79828 3.80446 4.22433 3.80446H11.9374ZM11.166 5.34732H4.99576V6.37435H11.166V5.34732Z" fill="#212121"/>
</g>
</svg>
