<svg width="17" height="20" viewBox="0 0 17 20" fill="none" xmlns="http://www.w3.org/2000/svg">
<path id="Vector" d="M4.11719 1.0044H4.86719C4.86719 0.727798 4.71495 0.473658 4.47108 0.343138C4.22722 0.212628 3.93131 0.226928 3.70116 0.380358L4.11719 1.0044ZM10.1172 1.0044L10.5332 0.380358C10.3031 0.226928 10.0072 0.212628 9.76329 0.343138C9.51939 0.473658 9.36719 0.727798 9.36719 1.0044H10.1172ZM3.36719 2.5044C3.36719 2.91861 3.70298 3.2544 4.11719 3.2544C4.5314 3.2544 4.86719 2.91861 4.86719 2.5044H3.36719ZM9.36719 2.5044C9.36719 2.91861 9.70299 3.2544 10.1172 3.2544C10.5314 3.2544 10.8672 2.91861 10.8672 2.5044H9.36719ZM12.3672 4.60995V8.0044H13.8672V4.60995H12.3672ZM9.11719 11.2544H5.11719V12.7544H9.11719V11.2544ZM1.86719 8.0044V4.60995H0.367188V8.0044H1.86719ZM2.86911 2.73784L4.53322 1.62844L3.70116 0.380358L2.03706 1.48976L2.86911 2.73784ZM12.1973 1.48976L10.5332 0.380358L9.70119 1.62844L11.3653 2.73784L12.1973 1.48976ZM3.36719 1.0044V2.5044H4.86719V1.0044H3.36719ZM9.36719 1.0044V2.5044H10.8672V1.0044H9.36719ZM5.11719 11.2544C3.32226 11.2544 1.86719 9.7993 1.86719 8.0044H0.367188C0.367188 10.6278 2.49384 12.7544 5.11719 12.7544V11.2544ZM12.3672 8.0044C12.3672 9.7993 10.9121 11.2544 9.11719 11.2544V12.7544C11.7406 12.7544 13.8672 10.6278 13.8672 8.0044H12.3672ZM13.8672 4.60995C13.8672 3.35613 13.2406 2.18526 12.1973 1.48976L11.3653 2.73784C11.9912 3.15514 12.3672 3.85766 12.3672 4.60995H13.8672ZM1.86719 4.60995C1.86719 3.85766 2.24317 3.15514 2.86911 2.73784L2.03706 1.48976C0.993817 2.18526 0.367188 3.35613 0.367188 4.60995H1.86719ZM6.36719 12.0044V18.0044H7.86719V12.0044H6.36719ZM8.11719 19.7544H10.1172V18.2544H8.11719V19.7544ZM11.8672 18.0044V16.368H10.3672V18.0044H11.8672ZM12.1172 16.118H13.1172V14.618H12.1172V16.118ZM11.8672 16.368C11.8672 16.23 11.9791 16.118 12.1172 16.118V14.618C11.1507 14.618 10.3672 15.4015 10.3672 16.368H11.8672ZM10.1172 19.7544C11.0837 19.7544 11.8672 18.9709 11.8672 18.0044H10.3672C10.3672 18.1425 10.2553 18.2544 10.1172 18.2544V19.7544ZM6.36719 18.0044C6.36719 18.9709 7.15069 19.7544 8.11719 19.7544V18.2544C7.97909 18.2544 7.86719 18.1425 7.86719 18.0044H6.36719ZM15.3672 15.3676C15.3672 15.7818 15.0314 16.1176 14.6172 16.1176V17.6176C15.8598 17.6176 16.8672 16.6102 16.8672 15.3676H15.3672ZM14.6172 16.1176C14.2027 16.1176 13.8672 15.782 13.8672 15.368H12.3672C12.3672 16.611 13.3749 17.6176 14.6172 17.6176V16.1176ZM13.8672 15.368C13.8672 14.9535 14.2033 14.6176 14.6172 14.6176V13.1176C13.3743 13.1176 12.3672 14.1257 12.3672 15.368H13.8672ZM14.6172 14.6176C15.0314 14.6176 15.3672 14.9534 15.3672 15.3676H16.8672C16.8672 14.1249 15.8598 13.1176 14.6172 13.1176V14.6176Z" fill="#4B4B4B"/>
</svg>
