<svg xmlns="http://www.w3.org/2000/svg" width="21" height="18" viewBox="0 0 21 18" fill="none">
  <path d="M12.4548 0.896257C11.2674 0.119884 9.73317 0.11987 8.54581 0.8962L0.823392 5.94538C0.623306 6.07621 0.501934 6.29846 0.500023 6.53751C0.499812 6.56394 0.501063 6.59018 0.50372 6.61614C0.501491 6.63913 0.500349 6.66244 0.500349 6.68603V12.4003C0.500349 12.7948 0.820149 13.1146 1.21464 13.1146C1.60912 13.1146 1.92892 12.7948 1.92892 12.4003V7.8895L3.3575 8.8565V14.1146C3.3575 14.2842 3.41863 14.449 3.5284 14.5782L3.52948 14.5795L3.53231 14.5828L3.54068 14.5925L3.56824 14.6236C3.59138 14.6493 3.62408 14.6852 3.66611 14.7293C3.75013 14.8178 3.87174 14.9405 4.0293 15.0859C4.34394 15.3763 4.80482 15.7602 5.39892 16.1435C6.58556 16.9091 8.32584 17.6861 10.5005 17.6861C12.6752 17.6861 14.4154 16.9089 15.602 16.1435C16.1961 15.7602 16.657 15.3763 16.9715 15.0859C17.1291 14.9405 17.2507 14.8178 17.3347 14.7293C17.3767 14.685 17.4094 14.6493 17.4325 14.6236L17.4601 14.5925L17.4685 14.5828L17.4712 14.5795L17.4732 14.5772C17.583 14.448 17.6432 14.2842 17.6432 14.1146V8.85613L20.1861 7.13473C20.3841 7.00071 20.5024 6.83659 20.5 6.53751C20.4981 6.29847 20.3767 6.07623 20.1767 5.9454L12.4548 0.896257ZM16.2147 9.82319V13.832C16.1577 13.8895 16.0868 13.9583 16.0025 14.0362C15.7368 14.2815 15.3405 14.612 14.8275 14.943C13.7998 15.606 12.3258 16.2575 10.5005 16.2575C8.67517 16.2575 7.20108 15.606 6.17338 14.943C5.6603 14.612 5.26399 14.2815 4.99824 14.0362C4.91394 13.9583 4.84307 13.8895 4.78607 13.832V9.82351L8.49827 12.3363C9.70747 13.1548 11.2931 13.1548 12.5023 12.3362L16.2147 9.82319ZM4.07179 14.1146L3.5284 14.5782C3.5284 14.5782 3.52756 14.5772 4.07179 14.1146ZM9.32758 2.09187C10.04 1.62607 10.9606 1.62609 11.673 2.09192L18.4964 6.54317L11.7015 11.1532C10.976 11.6444 10.0246 11.6444 9.29907 11.1533L2.50377 6.55353L9.32758 2.09187Z" fill="#212121"/>
</svg>