<svg width="21" height="20" viewBox="0 0 21 20" fill="none" xmlns="http://www.w3.org/2000/svg">
<path id="Vector" d="M12.7498 0.472363C12.0225 0.179004 11.2203 0.00439453 10.3672 0.00439453C7.97031 0.00439453 5.92522 1.29854 5.07656 3.12939H8.70112L12.7498 0.472363ZM15.6578 3.12939C15.3051 2.36885 14.735 1.71533 14.0288 1.19502L11.081 3.12939H15.6578ZM10.3672 10.0044C13.523 10.0044 16.0815 7.76572 16.0815 5.00439C16.0815 4.79033 16.0391 4.58643 16.0096 4.37939H4.72478C4.69487 4.58643 4.6529 4.79033 4.6529 5.00439C4.6529 7.76572 7.21138 10.0044 10.3672 10.0044ZM3.93862 11.7114V20.0044H9.66451L5.26942 11.3513C4.81119 11.4252 4.36451 11.546 3.93862 11.7114ZM0.367188 18.1294C0.367188 19.1649 1.32656 20.0044 2.51004 20.0044V12.5138C1.21004 13.4767 0.367188 14.8974 0.367188 16.5044V18.1294ZM11.7958 16.2544H9.32344L11.2283 20.0044H11.7958C12.9775 20.0044 13.9386 19.1634 13.9386 18.1294C13.9386 17.0954 12.9775 16.2544 11.7958 16.2544ZM14.3672 11.2544H13.6212C12.6283 11.6521 11.5283 11.8794 10.3672 11.8794C9.20603 11.8794 8.10603 11.6521 7.11317 11.2544H6.78415L8.68906 15.0044H11.7958C13.765 15.0044 15.3672 16.4063 15.3672 18.1294C15.3672 18.8356 15.0877 19.4806 14.6346 20.0044H18.2243C19.4078 20.0044 20.3672 19.1649 20.3672 18.1294V16.5044C20.3672 13.6048 17.681 11.2544 14.3672 11.2544Z" fill="black"/>
</svg>
