<svg xmlns="http://www.w3.org/2000/svg" width="23" height="22" viewBox="0 0 23 22" fill="none">
  <path fill-rule="evenodd" clip-rule="evenodd" d="M3.23125 14.3694C3.3193 14.0639 3.47787 13.7859 3.69289 13.5601L13.8639 2.88261C15.1908 1.48965 17.3421 1.48965 18.669 2.88261C19.9959 4.27557 19.9959 6.53401 18.669 7.92698L18.5187 8.08476L20.2635 9.91642C20.624 10.2948 20.624 10.9084 20.2635 11.2868L15.6482 16.132C15.2877 16.5104 14.7032 16.5104 14.3427 16.132C13.9823 15.7536 13.9823 15.14 14.3427 14.7616L18.3054 10.6016L17.2133 9.45518L8.49797 18.6045C8.32439 18.7867 8.11836 18.9303 7.89227 19.0276L7.88128 19.0391L7.87662 19.0342C7.82766 19.0547 7.77777 19.073 7.72709 19.0891L4.58121 20.0882C3.92969 20.2951 3.22258 20.1088 2.74127 19.6035C2.25996 19.0982 2.08254 18.3559 2.27963 17.672L3.23125 14.3694ZM17.2133 6.71434L17.3636 6.55656C17.9695 5.92046 17.9695 4.88913 17.3636 4.25303C16.7577 3.61693 15.7753 3.61693 15.1693 4.25303L15.019 4.41081L17.2133 6.71434ZM13.7136 5.78123L15.9079 8.08476L7.98264 16.4047L5.78839 14.1011L13.7136 5.78123ZM4.68889 16.0044L4.75894 15.7613L6.40127 17.4854L6.16969 17.5589L4.04668 18.2331L4.68889 16.0044Z" fill="#C4C8D4"/>
</svg>