<svg xmlns="http://www.w3.org/2000/svg" width="19" height="16" viewBox="0 0 19 16" fill="none">
  <path d="M9.50001 0.286987C8.08128 0.286987 6.93115 1.43711 6.93115 2.85586C6.93115 4.27459 8.08128 5.42471 9.50001 5.42471C10.9188 5.42471 12.0689 4.27459 12.0689 2.85586C12.0689 1.43711 10.9188 0.286987 9.50001 0.286987Z" fill="#4B4B4B"/>
  <path d="M15.2855 1.57013C14.2204 1.57013 13.3569 2.43358 13.3569 3.4987C13.3569 4.56383 14.2204 5.42727 15.2855 5.42727C16.3506 5.42727 17.2141 4.56383 17.2141 3.4987C17.2141 2.43358 16.3506 1.57013 15.2855 1.57013Z" fill="#4B4B4B"/>
  <path d="M3.71422 1.57013C2.64909 1.57013 1.78564 2.43358 1.78564 3.4987C1.78564 4.56383 2.64909 5.42727 3.71422 5.42727C4.77934 5.42727 5.64279 4.56383 5.64279 3.4987C5.64279 2.43358 4.77934 1.57013 3.71422 1.57013Z" fill="#4B4B4B"/>
  <path d="M5.64309 7.98999C5.64757 7.28374 6.22147 6.71259 6.92878 6.71259H12.0716C12.7817 6.71259 13.3574 7.28823 13.3574 7.99831V11.8558C13.3574 11.9889 13.3507 12.1206 13.3374 12.2502C13.3095 12.5254 13.2526 12.7921 13.1699 13.0472C12.668 14.5944 11.2147 15.713 9.50021 15.713C7.76938 15.713 6.30482 14.5729 5.81647 13.0028C5.70378 12.6405 5.64307 12.2553 5.64307 11.8558V7.9983C5.64307 7.99554 5.64308 7.99276 5.64309 7.98999Z" fill="#4B4B4B"/>
  <path d="M4.35714 7.9983C4.35714 7.52994 4.48236 7.09082 4.70115 6.71259H1.78571C1.07564 6.71259 0.5 7.28823 0.5 7.9983V11.213C0.5 12.9882 1.93909 14.4273 3.71429 14.4273C4.14001 14.4273 4.54641 14.3445 4.91827 14.1942C4.55951 13.4927 4.35714 12.6979 4.35714 11.8558V7.9983Z" fill="#4B4B4B"/>
  <path d="M14.6426 7.99831V11.8558C14.6426 12.6979 14.4403 13.4927 14.0815 14.1942C14.4534 14.3445 14.8598 14.4273 15.2855 14.4273C17.0607 14.4273 18.4998 12.9882 18.4998 11.213V7.9983C18.4998 7.28823 17.9242 6.71259 17.2141 6.71259H14.2986C14.5174 7.09082 14.6426 7.52994 14.6426 7.99831Z" fill="#4B4B4B"/>
</svg>