<svg xmlns="http://www.w3.org/2000/svg" width="16" height="16" viewBox="0 0 16 16" fill="none">
  <path d="M8 0C12.4183 0 16 3.58172 16 8C16 12.4183 12.4183 16 8 16C3.58172 16 0 12.4183 0 8C0 3.58172 3.58172 0 8 0ZM8 4C7.75454 4 7.55039 4.17688 7.50806 4.41012L7.5 4.5V7.5H4.5C4.22386 7.5 4 7.72386 4 8C4 8.24542 4.17688 8.4496 4.41012 8.49194L4.5 8.5H7.5V11.5C7.5 11.7761 7.72386 12 8 12C8.24542 12 8.4496 11.8231 8.49194 11.5899L8.5 11.5V8.5H11.5C11.7761 8.5 12 8.2761 12 8C12 7.75454 11.8231 7.55039 11.5899 7.50806L11.5 7.5H8.5V4.5C8.5 4.22386 8.2761 4 8 4Z" fill="#13B97D"/>
</svg>