<svg width="19" height="16" viewBox="0 0 19 16" fill="none" xmlns="http://www.w3.org/2000/svg">
<g id="&#240;&#159;&#166;&#134; icon &#34;People Team&#34;">
<g id="Group">
<path id="Vector" d="M9.3672 0.291504C7.94846 0.291504 6.79834 1.44163 6.79834 2.86037C6.79834 4.27911 7.94846 5.42923 9.3672 5.42923C10.7859 5.42923 11.9361 4.27911 11.9361 2.86037C11.9361 1.44163 10.7859 0.291504 9.3672 0.291504Z" fill="#4B4B4B"/>
<path id="Vector_2" d="M15.1527 1.57471C14.0876 1.57471 13.2241 2.43815 13.2241 3.50328C13.2241 4.5684 14.0876 5.43185 15.1527 5.43185C16.2178 5.43185 17.0813 4.5684 17.0813 3.50328C17.0813 2.43815 16.2178 1.57471 15.1527 1.57471Z" fill="#4B4B4B"/>
<path id="Vector_3" d="M3.5814 1.57471C2.51628 1.57471 1.65283 2.43815 1.65283 3.50328C1.65283 4.5684 2.51628 5.43185 3.5814 5.43185C4.64653 5.43185 5.50997 4.5684 5.50997 3.50328C5.50997 2.43815 4.64653 1.57471 3.5814 1.57471Z" fill="#4B4B4B"/>
<path id="Vector_4" d="M5.51028 7.99469C5.51475 7.28844 6.08866 6.71729 6.79597 6.71729H11.9388C12.6489 6.71729 13.2245 7.29293 13.2245 8.00301V11.8605C13.2245 11.9936 13.2179 12.1253 13.2046 12.2549C13.1767 12.5301 13.1198 12.7968 13.0371 13.0519C12.5351 14.5991 11.0819 15.7177 9.3674 15.7177C7.63657 15.7177 6.17201 14.5776 5.68366 13.0075C5.57097 12.6452 5.51025 12.26 5.51025 11.8605V8.003C5.51025 8.00024 5.51027 7.99746 5.51028 7.99469Z" fill="#4B4B4B"/>
<path id="Vector_5" d="M4.22433 8.003C4.22433 7.53464 4.34955 7.09552 4.56834 6.71729H1.6529C0.942827 6.71729 0.367188 7.29293 0.367188 8.003V11.2177C0.367188 12.9929 1.80627 14.432 3.58147 14.432C4.0072 14.432 4.4136 14.3492 4.78545 14.1989C4.4267 13.4974 4.22433 12.7026 4.22433 11.8605V8.003Z" fill="#4B4B4B"/>
<path id="Vector_6" d="M14.5098 8.00301V11.8605C14.5098 12.7026 14.3074 13.4974 13.9487 14.1989C14.3206 14.3492 14.727 14.432 15.1527 14.432C16.9279 14.432 18.367 12.9929 18.367 11.2177V8.003C18.367 7.29293 17.7913 6.71729 17.0812 6.71729H14.1658C14.3846 7.09552 14.5098 7.53464 14.5098 8.00301Z" fill="#4B4B4B"/>
</g>
</g>
</svg>
