<svg xmlns="http://www.w3.org/2000/svg" width="23" height="22" viewBox="0 0 23 22" fill="none">
  <path fill-rule="evenodd" clip-rule="evenodd" d="M15.2719 4.58789L15.0339 4.58789C15.0339 3.06911 13.8026 1.83789 12.2839 1.83789H10.4505C8.93174 1.83789 7.70052 3.06911 7.70052 4.58789L7.09853 4.58789L6.78385 4.58789L6.78277 4.58789L4.03385 4.58789C3.52759 4.58789 3.11719 4.9983 3.11719 5.50456C3.11719 6.01082 3.52759 6.42122 4.03385 6.42122L4.95052 6.42122L4.95052 17.4212C4.95052 18.94 6.18174 20.1712 7.70052 20.1712H15.0339C16.5526 20.1712 17.7839 18.94 17.7839 17.4212L17.7839 6.42122L18.7005 6.42122C19.2068 6.42122 19.6172 6.01082 19.6172 5.50456C19.6172 4.9983 19.2068 4.58789 18.7005 4.58789L15.9522 4.58789L15.9505 4.58789L15.2719 4.58789ZM15.9505 6.42122H14.1172L13.2005 6.42122L9.53385 6.42123L8.61719 6.42122L6.78385 6.42122L6.78385 8.25456L6.78386 17.4212C6.78386 17.9275 7.19426 18.3379 7.70052 18.3379H15.0339C15.5401 18.3379 15.9505 17.9275 15.9505 17.4212L15.9505 8.25456V6.42122ZM9.53385 4.58789H10.4505H11.3672L12.2839 4.58789H13.2005C13.2005 4.08163 12.7901 3.67122 12.2839 3.67122L10.4505 3.67122C9.94426 3.67122 9.53385 4.08163 9.53385 4.58789ZM9.53385 8.25456C10.0401 8.25456 10.4505 8.66496 10.4505 9.17122V15.5879C10.4505 16.0942 10.0401 16.5046 9.53385 16.5046C9.02759 16.5046 8.61719 16.0942 8.61719 15.5879V9.17122C8.61719 8.66496 9.02759 8.25456 9.53385 8.25456ZM14.1172 9.17122C14.1172 8.66496 13.7068 8.25456 13.2005 8.25456C12.6943 8.25456 12.2839 8.66496 12.2839 9.17122V15.5879C12.2839 16.0942 12.6943 16.5046 13.2005 16.5046C13.7068 16.5046 14.1172 16.0942 14.1172 15.5879V9.17122Z" fill="#C4C8D4"/>
</svg>